<svg width="64" height="64" viewBox="0 0 64 64" fill="none" xmlns="http://www.w3.org/2000/svg">
<path d="M33.8046 36.7374C34.5876 36.7374 35.2107 36.5353 35.6653 36.1256C36.1256 35.7158 36.3529 35.1854 36.3529 34.5231C36.3529 33.8607 36.1256 33.3303 35.6653 32.9233C35.2107 32.5136 34.5876 32.3115 33.8046 32.3115H17.8944V48.4939H59.4338C62.3357 43.678 64.0056 38.0368 64.0056 32.0056C64.0028 14.3273 49.6755 0 32.0028 0C14.3301 0 0 14.3273 0 32C0 49.6727 14.3301 64 32.0028 64C41.9576 64 50.8486 59.4562 56.7171 52.3249H13.8334V29.3563H34.1077C35.7607 29.3563 37.1219 29.8249 38.1968 30.7623C39.2745 31.6969 39.8134 32.9346 39.8134 34.4725C39.8134 35.5587 39.5075 36.4961 38.9041 37.2875C38.3006 38.0845 37.5289 38.6767 36.5859 39.0668L38.6515 42.9062H47.0991V23.9621L47.0598 23.9284L45.9372 22.8732L32.4939 10.1428L32.4462 10.1877L19.0114 22.8255H20.3333L20.28 22.8732H40.6637L45.432 26.9342H8.71145L32.4939 4.56902L51.1573 22.1182V45.8558H37.1472C36.7094 45.8558 36.3557 45.6453 36.0863 45.2187L33.5155 40.1726C33.2629 39.7488 32.9121 39.5355 32.4575 39.5355H29.4629V45.853H26.0446V36.7318H33.8018L33.8046 36.7374Z" fill="#4DAF50"/>
</svg>
